<svg id="big_joystick" width="497" height="409" viewBox="0 0 497 409" fill="none" xmlns="http://www.w3.org/2000/svg">
<path d="M1.55197 307.739L36.123 139.434C42.9867 106.029 74.9328 85.477 106.587 94.6545L120.898 98.796C126.031 100.293 131.359 101.051 136.706 101.051L168.652 101.129L300.073 101.421L334.682 101.499C340.593 101.518 346.504 100.74 352.221 99.1849L368.34 94.81C404.894 84.9131 443.062 107.429 451.442 144.45L494.549 335.174C501.763 367.062 483.622 397.55 452.492 406.3C417.863 416.041 380.453 394.381 370.926 359.654L356.129 305.717C353.057 294.537 342.966 286.429 331.513 285.884L139.583 277.057C129.2 276.571 120.159 283.376 117.418 293.681L104.332 342.874C95.9904 374.198 63.9666 389.345 35.2675 376.026C10.185 364.359 -4.08673 335.291 1.55197 307.739Z" fill="url(#paint0_linear_2295_2)"/>
<path opacity="0.3" d="M169.76 189.851L276.662 192.826C286.17 193.098 293.928 184.31 293.928 173.188V101.44L153.641 101.09V170.038C153.641 180.732 160.836 189.599 169.76 189.851Z" fill="url(#paint1_linear_2295_2)"/>
<path opacity="0.3" d="M82.1076 333.541C82.4381 320.98 76.4689 314.525 77.7327 295.334C78.3355 286.37 80.0271 260.86 96.846 247.833C112.945 235.35 135.209 240.327 164.005 246.744C201.104 255.007 199.665 263.893 225.7 267.49C263.654 272.721 277.187 255.28 304.856 264.224C318.641 268.676 329.18 277.504 337.094 286.779C335.285 286.293 333.419 285.981 331.513 285.884L139.583 277.057C129.2 276.571 120.159 283.376 117.418 293.681L104.332 342.874C97.5654 368.287 75.205 383.064 51.678 380.614C75.7495 361.54 81.777 345.499 82.1076 333.541Z" fill="url(#paint2_linear_2295_2)"/>
<path d="M312.983 172.741C312.983 203.929 338.493 230.022 370.401 231.072C402.794 232.122 429.413 207.02 429.413 174.977C429.413 142.933 402.794 116.801 370.401 116.626C338.493 116.432 312.983 141.572 312.983 172.741Z" fill="url(#paint3_linear_2295_2)"/>
<path d="M247.866 246.958C247.866 272.157 268.146 293.565 293.423 294.79C319.011 296.034 339.991 276.162 339.991 250.399C339.991 224.636 319.011 203.19 293.423 202.529C268.126 201.848 247.866 221.739 247.866 246.958Z" fill="url(#paint4_linear_2295_2)"/>
<path d="M256.635 247.288C256.635 267.626 273.026 284.893 293.423 285.826C314.014 286.779 330.852 270.776 330.852 250.049C330.852 229.342 314.014 212.076 293.423 211.492C273.026 210.909 256.635 226.931 256.635 247.288Z" fill="url(#paint5_linear_2295_2)"/>
<path d="M263.926 247.697C263.926 261.871 275.321 273.907 289.553 274.587C303.942 275.287 315.744 264.107 315.744 249.622C315.744 235.136 303.942 223.081 289.553 222.692C275.321 222.322 263.926 233.522 263.926 247.697Z" fill="url(#paint6_linear_2295_2)"/>
<path d="M268.865 247.872C268.865 259.304 278.082 269.007 289.553 269.551C301.142 270.096 310.611 261.093 310.611 249.447C310.611 237.8 301.142 228.097 289.553 227.767C278.082 227.417 268.865 236.439 268.865 247.872Z" fill="url(#paint7_linear_2295_2)"/>
<path d="M112.168 241.319C112.168 265.604 130.989 286.195 154.458 287.343C178.199 288.49 197.643 269.318 197.643 244.527C197.643 219.717 178.199 199.107 154.458 198.484C130.989 197.843 112.168 217.034 112.168 241.319Z" fill="url(#paint8_linear_2295_2)"/>
<path d="M120.315 241.63C120.315 261.23 135.52 277.835 154.438 278.71C173.532 279.585 189.165 264.146 189.165 244.216C189.165 224.286 173.552 207.662 154.438 207.117C135.52 206.573 120.315 222.031 120.315 241.63Z" fill="url(#paint9_linear_2295_2)"/>
<path d="M123.27 241.941C123.27 256.116 134.664 268.151 148.897 268.832C163.285 269.532 175.088 258.352 175.088 243.866C175.088 229.381 163.285 217.325 148.897 216.937C134.664 216.587 123.27 227.786 123.27 241.941Z" fill="url(#paint10_linear_2295_2)"/>
<path d="M128.209 242.136C128.209 253.569 137.425 263.271 148.897 263.816C160.486 264.36 169.955 255.358 169.955 243.711C169.955 232.064 160.486 222.361 148.897 222.031C137.425 221.681 128.209 230.703 128.209 242.136Z" fill="url(#paint11_linear_2295_2)"/>
<path d="M312.964 138.636C316.891 138.675 320.08 135.545 320.08 131.617V119.154C320.08 115.245 316.891 112.037 312.964 112.037C309.056 112.018 305.867 115.168 305.867 119.076V131.5C305.886 135.409 309.056 138.597 312.964 138.636Z" fill="url(#paint12_linear_2295_2)"/>
<path d="M140.458 136.556C144.036 136.595 146.933 133.6 146.933 129.848V117.948C146.933 114.215 144.036 111.162 140.458 111.143C136.881 111.123 134.003 114.137 134.003 117.87V129.731C134.003 133.464 136.9 136.517 140.458 136.556Z" fill="url(#paint13_linear_2295_2)"/>
<path d="M364.295 132.375L376.525 132.492C380.122 132.531 383.058 135.428 383.058 138.967V152.889C383.058 154.153 382.669 155.377 381.97 156.427L376.447 164.516C375.242 166.285 373.2 167.316 371.023 167.277L369.817 167.258C367.639 167.219 365.617 166.11 364.412 164.302L358.929 156.077C358.229 155.027 357.859 153.783 357.859 152.539V138.714C357.82 135.175 360.717 132.356 364.295 132.375Z" fill="url(#paint14_linear_2295_2)"/>
<path d="M364.295 215.07L376.525 215.42C380.122 215.517 383.058 212.737 383.058 209.198V195.276C383.058 194.012 382.669 192.768 381.97 191.699L376.447 183.396C375.242 181.588 373.2 180.46 371.023 180.421L369.817 180.402C367.639 180.363 365.617 181.393 364.412 183.143L358.929 191.154C358.229 192.185 357.859 193.39 357.859 194.654V208.479C357.82 212.017 360.717 214.973 364.295 215.07Z" fill="url(#paint15_linear_2295_2)"/>
<path d="M412.944 168.58V180.713C412.944 184.271 409.969 187.11 406.313 187.032L392.003 186.721C390.719 186.701 389.455 186.293 388.367 185.574L380.025 179.974C378.198 178.749 377.109 176.727 377.109 174.588V173.402C377.109 171.263 378.198 169.28 380.025 168.113L388.367 162.825C389.436 162.144 390.7 161.794 392.003 161.813L406.313 162.047C409.969 162.086 412.944 165.022 412.944 168.58Z" fill="url(#paint16_linear_2295_2)"/>
<path d="M328.713 167.083V178.982C328.713 182.482 331.571 185.379 335.091 185.457L349.012 185.768C350.276 185.788 351.521 185.457 352.571 184.777L360.815 179.546C362.623 178.399 363.712 176.435 363.712 174.296V173.11C363.712 170.971 362.623 168.949 360.815 167.744L352.571 162.202C351.521 161.483 350.276 161.094 349.012 161.075L335.091 160.841C331.571 160.802 328.713 163.602 328.713 167.083Z" fill="url(#paint17_linear_2295_2)"/>
<path d="M361.573 132.978L373.803 133.095C377.4 133.134 380.336 136.031 380.336 139.57V153.492C380.336 154.755 379.948 155.98 379.248 157.03L373.726 165.119C372.52 166.888 370.478 167.919 368.301 167.88L367.095 167.86C364.918 167.822 362.895 166.713 361.69 164.905L356.207 156.68C355.507 155.63 355.137 154.386 355.137 153.142V139.317C355.098 135.778 357.996 132.959 361.573 132.978Z" fill="url(#paint18_linear_2295_2)"/>
<path d="M361.573 215.673L373.803 216.023C377.4 216.12 380.336 213.339 380.336 209.801V195.879C380.336 194.615 379.948 193.371 379.248 192.301L373.726 183.999C372.52 182.19 370.478 181.063 368.301 181.024L367.095 181.004C364.918 180.965 362.895 181.996 361.69 183.746L356.207 191.757C355.507 192.787 355.137 193.993 355.137 195.257V209.081C355.098 212.639 357.996 215.575 361.573 215.673Z" fill="url(#paint19_linear_2295_2)"/>
<path d="M410.202 169.183V181.315C410.202 184.874 407.227 187.712 403.572 187.635L389.261 187.324C387.978 187.304 386.714 186.896 385.625 186.176L377.284 180.577C375.456 179.352 374.367 177.329 374.367 175.191V174.005C374.367 171.866 375.456 169.883 377.284 168.716L385.625 163.427C386.695 162.747 387.958 162.397 389.261 162.416L403.572 162.649C407.247 162.688 410.202 165.624 410.202 169.183Z" fill="url(#paint20_linear_2295_2)"/>
<path d="M325.972 167.705V179.605C325.972 183.104 328.83 186.002 332.349 186.079L346.271 186.39C347.535 186.41 348.779 186.079 349.829 185.399L358.073 180.168C359.881 179.021 360.97 177.057 360.97 174.919V173.732C360.97 171.594 359.881 169.572 358.073 168.366L349.829 162.825C348.779 162.105 347.535 161.716 346.271 161.697L332.349 161.463C328.83 161.405 325.972 164.205 325.972 167.705Z" fill="url(#paint21_linear_2295_2)"/>
<path d="M135.189 169.027C135.189 198.757 112.245 222.128 84.3046 221.214C56.7527 220.32 34.7035 196.093 34.7035 167.102C34.7035 138.111 56.7527 114.721 84.3046 114.876C112.245 115.051 135.189 139.298 135.189 169.027Z" fill="url(#paint22_linear_2295_2)"/>
<path d="M71.5496 134.534C71.5496 141.981 77.2466 148.105 84.3047 148.222C91.3822 148.319 97.1376 142.311 97.1376 134.806C97.1376 127.301 91.3822 121.176 84.3047 121.117C77.266 121.079 71.5496 127.067 71.5496 134.534Z" fill="url(#paint23_linear_2295_2)"/>
<path d="M71.5496 201.109C71.5496 208.556 77.2466 214.778 84.3047 215.011C91.3822 215.225 97.1376 209.334 97.1376 201.829C97.1376 194.323 91.3822 188.101 84.3047 187.926C77.266 187.751 71.5496 193.643 71.5496 201.109Z" fill="url(#paint24_linear_2295_2)"/>
<path d="M116.115 155.008C108.94 154.891 103.146 160.899 103.146 168.405C103.146 175.93 108.94 182.152 116.115 182.307C123.309 182.463 129.161 176.474 129.161 168.91C129.161 161.347 123.309 155.125 116.115 155.008Z" fill="url(#paint25_linear_2295_2)"/>
<path d="M53.0002 154.036C46.0588 153.919 40.4395 159.83 40.4395 167.238C40.4395 174.646 46.0588 180.752 53.0002 180.907C59.9611 181.063 65.6387 175.152 65.6387 167.705C65.6387 160.258 59.9805 154.133 53.0002 154.036Z" fill="url(#paint26_linear_2295_2)"/>
<path d="M68.8275 135.136C68.8275 142.583 74.5245 148.708 81.5826 148.825C88.6602 148.922 94.4155 142.914 94.4155 135.409C94.4155 127.903 88.6602 121.779 81.5826 121.72C74.5245 121.681 68.8275 127.689 68.8275 135.136Z" fill="url(#paint27_linear_2295_2)"/>
<path d="M68.8275 201.712C68.8275 209.159 74.5245 215.381 81.5826 215.614C88.6602 215.828 94.4155 209.937 94.4155 202.431C94.4155 194.926 88.6602 188.704 81.5826 188.529C74.5245 188.354 68.8275 194.246 68.8275 201.712Z" fill="url(#paint28_linear_2295_2)"/>
<path d="M113.393 155.63C106.218 155.514 100.424 161.522 100.424 169.027C100.424 176.552 106.218 182.774 113.393 182.929C120.587 183.085 126.439 177.096 126.439 169.533C126.439 161.969 120.587 155.727 113.393 155.63Z" fill="url(#paint29_linear_2295_2)"/>
<path d="M50.278 154.639C43.3366 154.522 37.7174 160.433 37.7174 167.841C37.7174 175.229 43.3366 181.354 50.278 181.51C57.2389 181.665 62.9165 175.754 62.9165 168.308C62.9165 160.861 57.2389 154.736 50.278 154.639Z" fill="url(#paint30_linear_2295_2)"/>
<path opacity="0.3" d="M435.868 384.873C434.779 371.048 416.171 369.006 412.399 351.565C407.227 327.669 438.707 315.555 435.868 289.87C433.088 264.749 400.539 254.366 405.302 239.102C407.655 231.519 416.133 232.667 427.682 222.186C443.918 207.448 447.612 186.643 448.429 180.693C453.465 143.633 423.774 115.848 418.407 110.812C409.308 102.296 399.566 96.5406 390.506 92.6518C419.146 94.6351 444.773 114.915 451.442 144.431L494.549 335.155C501.763 367.043 483.622 397.53 452.492 406.28C442.615 409.061 432.524 409.275 422.899 407.369C433.807 397.958 436.315 390.511 435.868 384.873Z" fill="url(#paint31_linear_2295_2)"/>
<path opacity="0.3" d="M192.393 165.391C207.89 156.836 217.067 167.024 228.306 159.286C241.411 150.244 233.264 133.387 246.447 123.354C257.53 114.915 268.146 123.198 284.168 116.898C287.279 115.673 290.584 113.904 293.928 111.318V173.188C293.928 184.29 286.17 193.098 276.662 192.826L169.76 189.851C167.505 189.793 165.366 189.171 163.441 188.121C165.949 187.226 168.496 186.06 171.024 184.563C182.321 177.874 181.952 171.146 192.393 165.391Z" fill="#5488D0"/>
<path d="M123.62 86.4298C117.495 76.6106 104.293 58.9946 81.4854 50.6532C71.783 47.1144 56.3835 41.4757 44.6394 49.681C33.4593 57.4974 33.2065 72.5274 33.2065 74.0441C33.187 86.7214 40.9451 98.6599 53.2336 105.057C55.3724 102.665 57.4918 100.254 59.6306 97.8627C54.0697 87.1686 53.7586 77.8939 56.8696 76.0273C59.864 74.219 67.4081 78.4772 74.0774 87.0131C90.5851 86.7992 107.112 86.6047 123.62 86.4298Z" fill="url(#paint32_linear_2295_2)"/>
<path opacity="0.3" d="M45.32 85.8659C43.2006 81.1605 39.1952 81.0633 37.1536 75.8718C34.7814 69.8248 36.8814 61.4834 41.2368 59.539C44.4839 58.0808 46.2922 61.9112 51.6587 60.939C58.5612 59.6946 60.2528 54.5614 65.736 54.1726C69.2942 53.9198 70.383 55.9614 79.1133 61.639C89.3991 68.3471 96.4571 72.8192 101.357 70.5053C102.562 69.9415 104.332 68.6193 105.635 65.0805C114.268 72.6053 120.101 80.7911 123.62 86.4103C107.093 86.6048 90.5851 86.7992 74.0579 86.9937C67.3887 78.4773 59.8445 74.1996 56.8502 76.0079C53.7586 77.8745 54.0502 87.1492 59.6112 97.8433C57.4723 100.235 55.353 102.646 53.2142 105.038C49.9671 103.346 47.0699 101.265 44.5228 98.9127C46.8561 93.2157 46.7394 89.0158 45.32 85.8659Z" fill="url(#paint33_linear_2295_2)"/>
<path d="M33.2065 148.3C33.2065 148.3 31.5733 154.522 29.5317 158.158C27.4901 161.794 25.0013 161.347 24.9235 158.158C24.8457 154.969 30.7567 146.336 30.7567 146.336L33.2065 148.3Z" fill="url(#paint34_linear_2295_2)"/>
<path d="M139.953 94.4211C118.759 76.2995 95.4461 77.8939 95.4461 77.8939C79.0161 79.0217 67.6415 86.9547 62.2167 90.8435C36.862 109.023 30.465 137.606 28.8317 146.492C29.065 146.919 29.765 148.008 31.1649 148.669C32.7982 149.467 34.2954 149.175 34.7426 149.058C37.7953 143.264 48.8199 124.112 72.6969 113.904C92.7629 105.329 110.748 107.837 117.651 109.16C121.676 110.696 127.781 112.212 134.684 110.734C137.173 110.209 145.047 108.498 146 104.026C146.544 101.518 144.794 98.5432 139.953 94.4211Z" fill="url(#paint35_linear_2295_2)"/>
<path d="M195.154 45.2284C193.132 41.2229 184.226 24.7346 164.355 17.6182C147.38 11.5517 132.817 16.0432 126.731 17.9098C119.984 19.9903 107.423 23.8596 99.7625 35.6426C99.1792 36.537 89.4379 51.8392 95.5238 58.4307C99.5486 62.8055 109.679 62.4167 119.187 56.0586C118.604 58.2946 117.456 61.5223 114.987 64.6333C111.662 68.8137 108.979 68.9692 108.512 71.3997C107.89 74.7052 112.343 77.0578 120.159 84.5437C126.906 91.0185 125.934 91.524 132.039 97.2016C140.167 104.785 144.075 108.732 147.069 108.848C158.872 109.276 169.002 68.7942 170.732 61.7167C178.879 56.2335 187.026 50.731 195.154 45.2284Z" fill="url(#paint36_linear_2295_2)"/>
<path d="M115.454 44.4312C114.248 49.9532 111.798 53.5698 110.223 55.4947C108.085 58.1196 105.79 60.939 102.349 61.0168C99.5876 61.0751 96.4183 59.3446 95.66 57.0697C94.2989 53.0448 100.152 46.57 110.243 40.7174C111.973 41.9424 113.723 43.1868 115.454 44.4312Z" fill="url(#paint37_linear_2295_2)"/>
<path opacity="0.3" d="M100.521 54.6003C102.504 53.5115 101.901 51.0421 104.04 47.8339C108.804 40.7369 121.423 38.6953 124.028 42.1952C125.681 44.3923 123.387 48.8255 121.345 52.7532C120.626 54.1337 119.867 55.3586 119.09 56.4669C119.129 56.3308 119.167 56.1947 119.206 56.0586C109.698 62.4167 99.5681 62.7862 95.5432 58.4307C94.2211 56.9919 93.6378 55.1448 93.56 53.1032C96.321 54.7948 98.8098 55.5531 100.521 54.6003Z" fill="url(#paint38_linear_2295_2)"/>
<path d="M136.667 33.4261L109.29 32.7455C108.26 32.7261 107.501 33.6983 107.773 34.6899L111.487 48.1061C111.662 48.7283 112.187 49.1755 112.829 49.2144L137.872 51.431C138.825 51.5088 139.622 50.7116 139.525 49.7588L138.145 34.8066C138.086 34.0483 137.445 33.4455 136.667 33.4261Z" fill="white"/>
<path d="M111.001 46.3561C111.001 46.3561 109.173 45.9089 108.512 44.1784C108.162 43.2451 108.007 41.7868 107.948 40.6201C107.89 39.5896 108.629 38.6758 109.66 38.5008L113.315 37.8786C114.132 37.7425 114.832 38.5202 114.559 39.3174C114.365 39.8813 113.996 40.5035 113.296 41.0868C111.448 42.6423 110.573 43.6339 110.573 43.6339L111.001 46.3561Z" fill="url(#paint39_linear_2295_2)"/>
<path opacity="0.3" d="M146.719 86.4298C146.622 80.48 136.064 78.5162 133.77 68.1137C132.778 63.6028 133.303 57.3224 136.589 55.4364C140.789 53.0448 145.903 59.8696 151.794 57.6919C156.986 55.7669 155.936 49.3699 160.252 47.5616C165.249 45.4423 171.646 52.3059 177.46 57.2058C175.224 58.7224 172.988 60.2195 170.771 61.7362C169.041 68.8137 158.93 109.296 147.108 108.868C144.289 108.771 140.614 105.212 133.323 98.3683C144.056 93.5073 146.758 89.4824 146.719 86.4298Z" fill="url(#paint40_linear_2295_2)"/>
<path d="M188.815 38.2676C193.676 37.8981 205.07 60.7446 196.009 77.6413C194.784 79.9162 192.121 84.9132 186.56 87.4215C173.455 93.3324 154.127 80.9272 146 66.0139C142.286 59.2085 141.333 52.656 141.081 48.5533C142.131 47.2312 143.181 45.9284 144.231 44.6062C147.283 47.8534 153.252 53.181 162.236 55.7087C166.921 57.0114 172.813 58.6641 177.966 56.0198C186.812 51.4699 185.218 38.5398 188.815 38.2676Z" fill="url(#paint41_linear_2295_2)"/>
<path d="M144.756 8.75177C144.756 8.75177 149.053 15.3627 150.608 15.8682C152.164 16.3738 160.952 17.8515 160.972 18.2987C160.991 18.7459 156.111 19.8153 150.2 20.2236C144.289 20.6319 139.409 18.182 138.475 17.5209C137.523 16.8599 140.75 15.4988 142.228 15.6543C143.706 15.8099 142.403 11.2017 142.403 11.2017L144.756 8.75177Z" fill="url(#paint42_linear_2295_2)"/>
<path d="M115.396 45.9866C117.282 44.9561 118.876 46.181 121.034 45.0533C122.901 44.0811 122.551 42.7006 124.223 40.9312C127.451 37.4897 131.631 39.5313 134.548 36.6147C135.17 35.9925 135.87 35.0203 136.259 33.4259L136.648 33.4453C137.425 33.4648 138.067 34.0676 138.125 34.8453L139.506 49.7976C139.603 50.7503 138.806 51.5475 137.853 51.4698L113.043 49.2726C113.684 47.3282 114.598 46.4338 115.396 45.9866Z" fill="url(#paint43_linear_2295_2)"/>
<path d="M143.55 45.4812C143.297 44.6451 142.811 43.459 141.897 42.2729C139.856 39.648 136.336 37.9759 135.442 38.7925C135.034 39.1619 135.014 40.2313 136.609 43.2646C137.464 43.4784 138.592 43.8868 139.525 44.8201C140.867 46.1617 140.964 47.6978 141.703 47.7561C142.111 47.795 142.714 47.4061 143.55 45.4812Z" fill="url(#paint44_linear_2295_2)"/>
<path d="M136.55 10.6379C134.587 9.72403 133.264 6.51581 134.237 4.10478C134.956 2.31595 136.686 1.57707 137.931 1.05209C138.514 0.799322 142.617 -0.892283 145.261 1.22709C146.097 1.88818 146.758 3.0937 146.953 4.22144C147.05 4.80475 147.069 5.60193 146.972 7.19633C146.875 8.61572 146.914 8.55741 146.875 8.96573C146.778 9.97681 146.506 11.7267 145.533 14.1767C145.125 13.7294 144.581 13.2045 143.9 12.6795C143.647 12.4851 142.597 11.6879 141.431 11.2212C139.039 10.249 138.086 11.3573 136.55 10.6379Z" fill="url(#paint45_linear_2295_2)"/>
<path d="M147.05 11.4546C147.05 11.4546 146.875 15.3628 143.181 17.0738C139.875 18.6099 135.5 11.7268 136.706 9.08242C137.114 8.20745 138.359 7.2547 139.622 6.96304C140.381 6.78805 140.75 6.94361 141.975 6.63251C143.103 6.34085 143.317 6.08808 143.764 6.16585C144.308 6.28252 145.008 6.9047 145.533 9.33518C145.806 8.38243 146.408 7.76024 147.05 7.72136C147.147 7.72136 147.458 7.7408 147.692 7.89635C148.586 8.47967 148.411 9.91849 147.05 11.4546Z" fill="url(#paint46_linear_2295_2)"/>
<path d="M145.125 7.17682C145.125 7.17682 145.456 10.3851 145.125 11.4156C144.794 12.4461 143.433 13.8655 141.333 14.0794C139.214 14.2932 137.834 14.0794 137.834 14.0794C137.834 14.0794 139.409 17.7543 140.07 17.9098C140.731 18.0459 144.756 17.8515 145.494 17.1709C146.233 16.4904 147.128 13.5349 146.914 12.2128C146.7 10.91 145.494 7.93513 145.494 7.93513L145.125 7.17682Z" fill="url(#paint47_linear_2295_2)"/>
<defs>
<linearGradient id="paint0_linear_2295_2" x1="353.268" y1="87.2363" x2="158.378" y2="449.173" gradientUnits="userSpaceOnUse">
<stop stop-color="#446381"/>
<stop offset="0.9964" stop-color="#826F8C"/>
</linearGradient>
<linearGradient id="paint1_linear_2295_2" x1="293.928" y1="146.968" x2="153.645" y2="146.968" gradientUnits="userSpaceOnUse">
<stop stop-color="#40447E"/>
<stop offset="0.9964" stop-color="#3C3B6B"/>
</linearGradient>
<linearGradient id="paint2_linear_2295_2" x1="133.631" y1="271.056" x2="37.5464" y2="172.242" gradientUnits="userSpaceOnUse">
<stop stop-color="#446381"/>
<stop offset="0.9964" stop-color="#826F8C"/>
</linearGradient>
<linearGradient id="paint3_linear_2295_2" x1="338.476" y1="227.139" x2="418.546" y2="96.8428" gradientUnits="userSpaceOnUse">
<stop stop-color="#444B8C"/>
<stop offset="0.9964" stop-color="#26264F"/>
</linearGradient>
<linearGradient id="paint4_linear_2295_2" x1="339.996" y1="248.672" x2="247.86" y2="248.672" gradientUnits="userSpaceOnUse">
<stop stop-color="#444B8C"/>
<stop offset="0.9964" stop-color="#26264F"/>
</linearGradient>
<linearGradient id="paint5_linear_2295_2" x1="302.04" y1="171.694" x2="296.944" y2="219.009" gradientUnits="userSpaceOnUse">
<stop stop-color="#444B8C"/>
<stop offset="0.9964" stop-color="#26264F"/>
</linearGradient>
<linearGradient id="paint6_linear_2295_2" x1="287.68" y1="228.845" x2="296.323" y2="308.603" gradientUnits="userSpaceOnUse">
<stop stop-color="#444B8C"/>
<stop offset="0.9964" stop-color="#26264F"/>
</linearGradient>
<linearGradient id="paint7_linear_2295_2" x1="289.387" y1="219.194" x2="290.173" y2="287.557" gradientUnits="userSpaceOnUse">
<stop stop-color="#444B8C"/>
<stop offset="0.9964" stop-color="#26264F"/>
</linearGradient>
<linearGradient id="paint8_linear_2295_2" x1="197.641" y1="242.918" x2="112.168" y2="242.918" gradientUnits="userSpaceOnUse">
<stop stop-color="#444B8C"/>
<stop offset="0.9964" stop-color="#26264F"/>
</linearGradient>
<linearGradient id="paint9_linear_2295_2" x1="164.016" y1="156.83" x2="158.921" y2="204.145" gradientUnits="userSpaceOnUse">
<stop stop-color="#444B8C"/>
<stop offset="0.9964" stop-color="#26264F"/>
</linearGradient>
<linearGradient id="paint10_linear_2295_2" x1="147.024" y1="223.105" x2="155.668" y2="302.862" gradientUnits="userSpaceOnUse">
<stop stop-color="#444B8C"/>
<stop offset="0.9964" stop-color="#26264F"/>
</linearGradient>
<linearGradient id="paint11_linear_2295_2" x1="148.732" y1="213.453" x2="149.517" y2="281.816" gradientUnits="userSpaceOnUse">
<stop stop-color="#444B8C"/>
<stop offset="0.9964" stop-color="#26264F"/>
</linearGradient>
<linearGradient id="paint12_linear_2295_2" x1="322.837" y1="96.7071" x2="305.367" y2="147.479" gradientUnits="userSpaceOnUse">
<stop stop-color="#AA80F9"/>
<stop offset="0.9964" stop-color="#6165D7"/>
</linearGradient>
<linearGradient id="paint13_linear_2295_2" x1="168.135" y1="43.4766" x2="150.665" y2="94.2485" gradientUnits="userSpaceOnUse">
<stop stop-color="#AA80F9"/>
<stop offset="0.9964" stop-color="#6165D7"/>
</linearGradient>
<linearGradient id="paint14_linear_2295_2" x1="311.967" y1="203.37" x2="325.979" y2="189.903" gradientUnits="userSpaceOnUse">
<stop stop-color="#AA80F9"/>
<stop offset="0.9964" stop-color="#6165D7"/>
</linearGradient>
<linearGradient id="paint15_linear_2295_2" x1="338.638" y1="231.123" x2="352.651" y2="217.656" gradientUnits="userSpaceOnUse">
<stop stop-color="#AA80F9"/>
<stop offset="0.9964" stop-color="#6165D7"/>
</linearGradient>
<linearGradient id="paint16_linear_2295_2" x1="338.696" y1="231.182" x2="352.708" y2="217.716" gradientUnits="userSpaceOnUse">
<stop stop-color="#AA80F9"/>
<stop offset="0.9964" stop-color="#6165D7"/>
</linearGradient>
<linearGradient id="paint17_linear_2295_2" x1="312.088" y1="203.495" x2="326.1" y2="190.029" gradientUnits="userSpaceOnUse">
<stop stop-color="#AA80F9"/>
<stop offset="0.9964" stop-color="#6165D7"/>
</linearGradient>
<linearGradient id="paint18_linear_2295_2" x1="377.536" y1="140.657" x2="360.699" y2="141.253" gradientUnits="userSpaceOnUse">
<stop stop-color="#4499D9"/>
<stop offset="1" stop-color="#6E6CC1"/>
</linearGradient>
<linearGradient id="paint19_linear_2295_2" x1="377.536" y1="188.708" x2="360.699" y2="189.302" gradientUnits="userSpaceOnUse">
<stop stop-color="#4499D9"/>
<stop offset="1" stop-color="#6E6CC1"/>
</linearGradient>
<linearGradient id="paint20_linear_2295_2" x1="406.22" y1="167.964" x2="382.363" y2="169.626" gradientUnits="userSpaceOnUse">
<stop stop-color="#4499D9"/>
<stop offset="1" stop-color="#6E6CC1"/>
</linearGradient>
<linearGradient id="paint21_linear_2295_2" x1="357.082" y1="166.947" x2="333.778" y2="168.551" gradientUnits="userSpaceOnUse">
<stop stop-color="#4499D9"/>
<stop offset="1" stop-color="#6E6CC1"/>
</linearGradient>
<linearGradient id="paint22_linear_2295_2" x1="54.2878" y1="218.157" x2="139.454" y2="79.1253" gradientUnits="userSpaceOnUse">
<stop stop-color="#444B8C"/>
<stop offset="0.9964" stop-color="#26264F"/>
</linearGradient>
<linearGradient id="paint23_linear_2295_2" x1="15.1829" y1="203.841" x2="34.2905" y2="184.733" gradientUnits="userSpaceOnUse">
<stop stop-color="#AA80F9"/>
<stop offset="0.9964" stop-color="#6165D7"/>
</linearGradient>
<linearGradient id="paint24_linear_2295_2" x1="48.5771" y1="237.235" x2="67.6849" y2="218.127" gradientUnits="userSpaceOnUse">
<stop stop-color="#AA80F9"/>
<stop offset="0.9964" stop-color="#6165D7"/>
</linearGradient>
<linearGradient id="paint25_linear_2295_2" x1="48.0879" y1="236.746" x2="67.1955" y2="217.638" gradientUnits="userSpaceOnUse">
<stop stop-color="#AA80F9"/>
<stop offset="0.9964" stop-color="#6165D7"/>
</linearGradient>
<linearGradient id="paint26_linear_2295_2" x1="15.9285" y1="204.587" x2="35.0361" y2="185.479" gradientUnits="userSpaceOnUse">
<stop stop-color="#AA80F9"/>
<stop offset="0.9964" stop-color="#6165D7"/>
</linearGradient>
<linearGradient id="paint27_linear_2295_2" x1="91.5724" y1="127.683" x2="74.4909" y2="128.474" gradientUnits="userSpaceOnUse">
<stop stop-color="#4499D9"/>
<stop offset="1" stop-color="#6E6CC1"/>
</linearGradient>
<linearGradient id="paint28_linear_2295_2" x1="91.5724" y1="194.486" x2="74.4909" y2="195.277" gradientUnits="userSpaceOnUse">
<stop stop-color="#4499D9"/>
<stop offset="1" stop-color="#6E6CC1"/>
</linearGradient>
<linearGradient id="paint29_linear_2295_2" x1="123.549" y1="161.636" x2="106.182" y2="162.447" gradientUnits="userSpaceOnUse">
<stop stop-color="#4499D9"/>
<stop offset="1" stop-color="#6E6CC1"/>
</linearGradient>
<linearGradient id="paint30_linear_2295_2" x1="60.1166" y1="160.55" x2="43.2942" y2="161.323" gradientUnits="userSpaceOnUse">
<stop stop-color="#4499D9"/>
<stop offset="1" stop-color="#6E6CC1"/>
</linearGradient>
<linearGradient id="paint31_linear_2295_2" x1="482.019" y1="156.564" x2="287.129" y2="518.501" gradientUnits="userSpaceOnUse">
<stop stop-color="#444B8C"/>
<stop offset="0.9964" stop-color="#26264F"/>
</linearGradient>
<linearGradient id="paint32_linear_2295_2" x1="113.574" y1="58.5632" x2="53.421" y2="63.0373" gradientUnits="userSpaceOnUse">
<stop stop-color="#4499D9"/>
<stop offset="1" stop-color="#6E6CC1"/>
</linearGradient>
<linearGradient id="paint33_linear_2295_2" x1="62.5536" y1="33.5885" x2="75.7911" y2="69.9213" gradientUnits="userSpaceOnUse">
<stop stop-color="#AA80F9"/>
<stop offset="0.9964" stop-color="#6165D7"/>
</linearGradient>
<linearGradient id="paint34_linear_2295_2" x1="33.208" y1="153.524" x2="24.9276" y2="153.524" gradientUnits="userSpaceOnUse">
<stop stop-color="#311944"/>
<stop offset="1" stop-color="#6B3976"/>
</linearGradient>
<linearGradient id="paint35_linear_2295_2" x1="133.066" y1="93.5554" x2="55.1239" y2="99.8368" gradientUnits="userSpaceOnUse">
<stop stop-color="#4499D9"/>
<stop offset="1" stop-color="#6E6CC1"/>
</linearGradient>
<linearGradient id="paint36_linear_2295_2" x1="135.965" y1="18.7106" x2="159.623" y2="106.022" gradientUnits="userSpaceOnUse">
<stop stop-color="#893976"/>
<stop offset="1" stop-color="#311944"/>
</linearGradient>
<linearGradient id="paint37_linear_2295_2" x1="99.3419" y1="27.8277" x2="124.161" y2="119.421" gradientUnits="userSpaceOnUse">
<stop stop-color="#893976"/>
<stop offset="1" stop-color="#311944"/>
</linearGradient>
<linearGradient id="paint38_linear_2295_2" x1="103.307" y1="27.5598" x2="126.966" y2="114.871" gradientUnits="userSpaceOnUse">
<stop stop-color="#893976"/>
<stop offset="1" stop-color="#311944"/>
</linearGradient>
<linearGradient id="paint39_linear_2295_2" x1="111.291" y1="38.7344" x2="111.479" y2="70.0918" gradientUnits="userSpaceOnUse">
<stop stop-color="#FFC444"/>
<stop offset="0.9964" stop-color="#F36F56"/>
</linearGradient>
<linearGradient id="paint40_linear_2295_2" x1="139.126" y1="17.8539" x2="162.785" y2="105.165" gradientUnits="userSpaceOnUse">
<stop stop-color="#893976"/>
<stop offset="1" stop-color="#311944"/>
</linearGradient>
<linearGradient id="paint41_linear_2295_2" x1="157.055" y1="39.1862" x2="184.375" y2="72.4208" gradientUnits="userSpaceOnUse">
<stop stop-color="#893976"/>
<stop offset="1" stop-color="#311944"/>
</linearGradient>
<linearGradient id="paint42_linear_2295_2" x1="160.967" y1="14.5074" x2="138.286" y2="14.5074" gradientUnits="userSpaceOnUse">
<stop stop-color="#FFC444"/>
<stop offset="0.9964" stop-color="#F36F56"/>
</linearGradient>
<linearGradient id="paint43_linear_2295_2" x1="139.537" y1="42.4282" x2="113.057" y2="42.4282" gradientUnits="userSpaceOnUse">
<stop offset="0.494" stop-color="#EBEFF2"/>
<stop offset="1" stop-color="white"/>
</linearGradient>
<linearGradient id="paint44_linear_2295_2" x1="139.355" y1="38.5601" x2="139.542" y2="69.9172" gradientUnits="userSpaceOnUse">
<stop stop-color="#FFC444"/>
<stop offset="0.9964" stop-color="#F36F56"/>
</linearGradient>
<linearGradient id="paint45_linear_2295_2" x1="156.577" y1="19.1587" x2="137.142" y2="2.8394" gradientUnits="userSpaceOnUse">
<stop stop-color="#311944"/>
<stop offset="1" stop-color="#6B3976"/>
</linearGradient>
<linearGradient id="paint46_linear_2295_2" x1="141.419" y1="8.0582" x2="156.163" y2="38.7054" gradientUnits="userSpaceOnUse">
<stop stop-color="#FFC444"/>
<stop offset="0.9964" stop-color="#F36F56"/>
</linearGradient>
<linearGradient id="paint47_linear_2295_2" x1="137.461" y1="26.5414" x2="144.634" y2="8.3219" gradientUnits="userSpaceOnUse">
<stop stop-color="#311944"/>
<stop offset="1" stop-color="#6B3976"/>
</linearGradient>
</defs>
</svg>
