<svg id="big_gear" width="137" height="138" viewBox="0 0 137 138" fill="none" xmlns="http://www.w3.org/2000/svg">
<path d="M27.7943 102.346C22.8945 104.835 16.7114 102.541 14.0281 97.2325C11.3255 91.9243 13.1143 85.5856 18.0336 83.0968C18.2863 82.9607 18.5391 82.8635 18.8113 82.7468C17.8975 79.8108 17.2169 76.8359 16.7503 73.8805C16.4781 73.8805 16.1864 73.8805 15.8947 73.8416C10.2949 73.336 5.8423 68.2029 5.95897 62.3503C6.07564 56.4977 10.7032 52.1618 16.3031 52.6673C16.5947 52.6867 16.8864 52.7451 17.178 52.784C17.7613 49.8868 18.5585 47.048 19.5696 44.3065C19.3169 44.1509 19.0641 43.9954 18.8113 43.8204C14.0281 40.4566 12.4921 33.8457 15.3892 29.0236C18.2863 24.2016 24.5278 23.0155 29.311 26.3793C29.5637 26.5543 29.7971 26.7293 30.0109 26.9237C31.897 24.8238 33.9775 22.8988 36.2329 21.1295C36.0774 20.8767 35.9219 20.6045 35.7858 20.3323C33.0831 15.0241 29.5637 9.21042 34.5024 6.79939C45.9548 1.21902 50.8547 6.00219 53.5574 11.3103C53.6935 11.5826 53.8101 11.8742 53.9268 12.1464C56.6878 11.3687 59.4683 10.8437 62.2682 10.552C62.2487 10.2604 62.2293 9.96873 62.2487 9.65763C62.3654 3.80504 60.6349 0.635701 66.2542 0.538482C78.5038 0.305157 82.6453 5.61331 82.5286 11.4659C82.5286 11.777 82.4897 12.0686 82.4703 12.3603C85.2702 13.1575 88.0312 14.188 90.7145 15.4324C90.8506 15.1797 90.9672 14.9075 91.1228 14.6547C94.0199 9.83262 100.261 8.64654 105.045 12.0103C109.828 15.3741 111.364 21.985 108.467 26.8071C108.311 27.0598 108.156 27.2931 107.981 27.507C110.1 29.6264 112.083 31.9402 113.93 34.4096C114.164 34.254 114.416 34.1179 114.669 33.9818C119.569 31.493 125.752 33.7874 128.435 39.0955C131.138 44.4037 129.349 50.7424 124.43 53.2312C124.177 53.3673 123.924 53.4645 123.652 53.5811C124.566 56.5172 125.247 59.4921 125.713 62.4475C125.986 62.4475 126.277 62.4475 126.569 62.4864C132.169 62.992 136.621 68.1251 136.505 73.9777C136.388 79.8303 131.76 84.1662 126.16 83.6607C125.869 83.6413 125.577 83.5829 125.286 83.544C124.702 86.4412 123.905 89.28 122.894 92.0215C123.147 92.1771 123.399 92.3326 123.652 92.5076C128.435 95.8714 129.971 102.482 127.074 107.304C124.177 112.126 114.572 114.362 109.769 110.999C109.517 110.824 112.667 109.579 112.433 109.404C110.547 111.504 108.467 113.429 106.211 115.199C106.367 115.451 106.522 115.724 106.658 115.996C109.361 121.304 107.572 127.643 102.653 130.131C97.7531 132.62 91.57 130.326 88.8868 125.018C88.7506 124.745 88.634 124.454 88.5173 124.182C85.7563 124.959 82.9758 125.484 80.1759 125.776C80.1954 126.068 80.2148 126.359 80.1954 126.67C80.0787 132.523 75.4511 136.859 69.8513 136.353C64.2515 135.848 59.7988 130.715 59.9155 124.862C59.9155 124.551 59.9544 124.259 59.9738 123.968C57.1739 123.17 54.4129 122.14 51.7297 120.896C51.5936 121.148 51.4769 121.421 51.3213 121.673C48.4242 126.495 42.1827 127.681 37.3996 124.318C32.6164 120.954 31.0803 114.343 33.9775 109.521C34.133 109.268 34.2886 109.035 34.4636 108.821C32.3442 106.702 30.3609 104.388 28.5138 101.918C28.2804 102.055 28.0471 102.21 27.7943 102.346ZM88.984 103.104C106.814 94.0631 113.308 71.0806 103.508 51.7729C93.7088 32.4652 71.3096 24.1627 53.499 33.2235C35.6691 42.2649 29.1748 65.2474 38.9745 84.5551C48.7742 103.863 71.154 112.165 88.984 103.104Z" fill="url(#paint0_linear_39_3406)"/>
<path d="M15.8753 73.8417C10.2755 73.3361 5.82286 68.203 5.93953 62.3504C6.05619 56.4978 10.6838 52.1618 16.2836 52.6674C16.5753 52.6868 16.8669 52.7452 17.1586 52.784C17.7419 49.8869 18.5391 47.0481 19.5502 44.3066C19.2974 44.151 19.0446 43.9955 18.7919 43.8205C14.0087 40.4567 8.07832 32.3486 11.4615 27.8571C17.878 19.3213 24.5083 23.0156 29.311 26.3794C29.5637 26.5544 29.797 26.7294 30.0109 26.9238C31.897 24.8239 33.9775 22.8989 36.2329 21.1295C36.0774 20.8768 35.9219 20.6046 35.7858 20.3323C34.308 17.4352 34.1913 14.2464 35.1635 11.5438C39.7912 19.6907 44.3605 27.8765 48.8325 36.1013C34.6191 46.5231 30.0887 67.0558 38.9745 84.5552C46.4993 99.3908 61.471 107.713 76.0927 106.682C76.7538 108.374 77.376 110.065 78.076 111.757C79.962 116.307 82.1203 120.76 84.2786 125.193C82.9175 125.446 81.5564 125.64 80.1954 125.795C80.2148 126.087 80.2343 126.379 80.2148 126.69C80.0981 132.542 76.5399 137.501 66.3903 136.976C60.771 136.684 59.8183 130.734 59.9349 124.882C59.9349 124.571 59.9738 124.279 59.9933 123.987C57.1934 123.19 54.4323 122.16 51.7491 120.915C51.613 121.168 51.4963 121.44 51.3408 121.693C48.4437 126.515 38.3718 128.557 33.5886 125.193C28.8054 121.829 31.0998 114.343 33.9969 109.521C34.1525 109.268 34.308 109.035 34.483 108.821C32.3636 106.702 30.3804 104.388 28.5332 101.919C28.2999 102.074 28.0471 102.21 27.7943 102.346C22.8945 104.835 16.7114 102.541 14.0281 97.2326C11.3255 91.9244 13.1143 85.5857 18.0336 83.0969C18.2863 82.9608 18.5391 82.8636 18.8113 82.7469C17.8975 79.8109 17.2169 76.836 16.7503 73.8806C16.4586 73.8806 16.167 73.8806 15.8753 73.8417Z" fill="url(#paint1_linear_39_3406)"/>
<path d="M22.5058 102.93C17.6059 105.418 11.4228 103.124 8.73956 97.8158C6.03687 92.5077 7.82572 86.169 12.745 83.6802C12.9978 83.5441 13.2505 83.4468 13.5228 83.3302C12.6089 80.3942 11.9283 77.4193 11.4617 74.4638C11.1895 74.4638 10.8978 74.4638 10.6062 74.4249C5.00637 73.9194 0.553726 68.7862 0.67038 62.9336C0.787048 57.0811 5.41468 52.7451 11.0145 53.2506C11.3062 53.2701 11.5978 53.3284 11.8895 53.3673C12.4728 50.4702 13.27 47.6314 14.281 44.8898C14.0283 44.7343 13.7755 44.5787 13.5228 44.4037C8.73958 41.0399 7.2035 34.429 10.1006 29.607C12.9977 24.7849 19.2392 23.5989 24.0224 26.9626C24.2752 27.1376 24.5085 27.3126 24.7224 27.5071C26.6084 25.4071 28.6889 23.4822 30.9444 21.7128C30.7888 21.46 30.6333 21.1878 30.4972 20.9156C27.7945 15.6074 29.5833 9.26878 34.5026 6.77997C39.4024 4.29117 45.5856 6.58553 48.2688 11.8937C48.4049 12.1659 48.5216 12.4576 48.6382 12.7298C51.3993 11.952 54.1797 11.427 56.9796 11.1354C56.9602 10.8437 56.9407 10.5521 56.9602 10.241C57.0768 4.38838 61.7045 0.0524215 67.3043 0.55796C72.9041 1.0635 77.3567 6.19666 77.2401 12.0492C77.2401 12.3603 77.2012 12.652 77.1817 12.9436C79.9816 13.7408 82.7426 14.7714 85.4259 16.0158C85.562 15.763 85.6787 15.4908 85.8342 15.238C88.7313 10.416 94.9728 9.22989 99.756 12.5937C104.539 15.9574 106.075 22.5683 103.178 27.3904C103.023 27.6432 102.867 27.8765 102.692 28.0904C104.811 30.2097 106.795 32.5236 108.642 34.9929C108.875 34.8374 109.128 34.7013 109.381 34.5651C114.28 32.0763 120.464 34.3707 123.147 39.6789C125.85 44.987 124.061 51.3257 119.141 53.8145C118.889 53.9506 118.636 54.0478 118.364 54.1645C119.278 57.1005 119.958 60.0754 120.425 63.0309C120.697 63.0309 120.989 63.0309 121.28 63.0698C126.88 63.5753 131.333 68.7085 131.216 74.561C131.099 80.4136 126.472 84.7496 120.872 84.244C120.58 84.2246 120.289 84.1663 119.997 84.1274C119.414 87.0245 118.616 89.8633 117.605 92.6049C117.858 92.7604 118.111 92.916 118.364 93.091C123.147 96.4548 124.683 103.066 121.786 107.888C118.889 112.71 112.647 113.896 107.864 110.532C107.611 110.357 107.378 110.182 107.164 109.988C105.278 112.088 103.198 114.012 100.942 115.782C101.098 116.035 101.253 116.307 101.389 116.579C104.092 121.887 102.303 128.226 97.3838 130.715C92.484 133.204 86.3009 130.909 83.6176 125.601C83.4815 125.329 83.3649 125.037 83.2482 124.765C80.4872 125.543 77.7067 126.068 74.9068 126.359C74.9262 126.651 74.9457 126.943 74.9262 127.254C74.8096 133.106 70.182 137.442 64.5821 136.937C58.9823 136.431 54.5297 131.298 54.6464 125.445C54.6464 125.134 54.6852 124.843 54.7047 124.551C51.9048 123.754 49.1438 122.723 46.4605 121.479C46.3244 121.732 46.2078 122.004 46.0522 122.257C43.1551 127.079 36.9136 128.265 32.1305 124.901C27.3473 121.537 25.8112 114.926 28.7084 110.104C28.8639 109.852 29.0194 109.618 29.1944 109.404C27.0751 107.285 25.0918 104.971 23.2446 102.502C23.0113 102.657 22.7585 102.813 22.5058 102.93ZM83.6954 103.707C101.525 94.6659 108.02 71.6834 98.2199 52.3757C88.4202 33.068 66.021 24.7655 48.2105 33.8263C30.3805 42.8676 23.8863 65.8502 33.686 85.1579C43.4856 104.446 65.8849 112.768 83.6954 103.707Z" fill="url(#paint2_linear_39_3406)"/>
<defs>
<linearGradient id="paint0_linear_39_3406" x1="55.5844" y1="-35.8566" x2="99.3449" y2="254.875" gradientUnits="userSpaceOnUse">
<stop stop-color="#444B8C"/>
<stop offset="0.9964" stop-color="#26264F"/>
</linearGradient>
<linearGradient id="paint1_linear_39_3406" x1="26.1924" y1="-31.4324" x2="69.9528" y2="259.299" gradientUnits="userSpaceOnUse">
<stop stop-color="#444B8C"/>
<stop offset="0.9964" stop-color="#26264F"/>
</linearGradient>
<linearGradient id="paint2_linear_39_3406" x1="14.5439" y1="133.902" x2="202.28" y2="-103.896" gradientUnits="userSpaceOnUse">
<stop stop-color="#826F8C"/>
<stop offset="0.9964" stop-color="#446381"/>
</linearGradient>
</defs>
</svg>
