<svg width="519" height="469" viewBox="0 0 519 469" fill="none" xmlns="http://www.w3.org/2000/svg">
<path opacity="0.3" d="M285.585 468.829C414.22 468.829 518.5 364.549 518.5 235.914C518.5 107.279 414.22 2.99902 285.585 2.99902C156.949 2.99902 52.6699 107.279 52.6699 235.914C52.6699 364.549 156.949 468.829 285.585 468.829Z" fill="#4E8FD3"/>
<path opacity="0.3" d="M232.915 465.829C361.55 465.829 465.83 361.549 465.83 232.914C465.83 104.279 361.55 -0.000976562 232.915 -0.000976562C104.279 -0.000976562 -0.00012207 104.279 -0.00012207 232.914C-0.00012207 361.549 104.279 465.829 232.915 465.829Z" fill="#4E8FD3"/>
<path d="M260.492 467.829C389.127 467.829 493.407 363.549 493.407 234.914C493.407 106.279 389.127 1.99902 260.492 1.99902C131.857 1.99902 27.5771 106.279 27.5771 234.914C27.5771 363.549 131.857 467.829 260.492 467.829Z" fill="url(#paint0_linear_2301_3)"/>
<defs>
<linearGradient id="paint0_linear_2301_3" x1="260.492" y1="1.99902" x2="260.492" y2="467.829" gradientUnits="userSpaceOnUse">
<stop stop-color="#826F8C"/>
<stop offset="1" stop-color="#446381"/>
</linearGradient>
</defs>
</svg>
