<svg width="474" height="124" viewBox="0 0 474 124" fill="none" xmlns="http://www.w3.org/2000/svg">
<path d="M471.312 51.5979C474.724 56.0334 472.507 55.6922 468.753 55.8628C433.44 57.3982 397.955 57.3982 362.471 57.5688C362.13 57.5688 352.235 58.5924 361.959 54.8393C388.231 44.4328 415.015 34.5381 442.14 27.2024C447.77 25.667 447.429 26.0082 450.67 28.9084C453.911 31.8086 456.812 35.0499 459.712 38.1207C463.635 42.3856 467.73 46.8211 471.312 51.5979ZM89.8558 81.4525C62.0483 75.311 33.8997 70.3636 5.92163 64.9045C-2.43766 63.1985 1.14489 67.4635 2.50968 70.7049C5.40984 77.6994 8.31002 84.5233 11.722 91.1766C14.2809 96.1239 14.6221 95.7827 20.0813 95.1003C43.6237 92.3708 66.9957 88.7882 90.197 84.6939C99.2386 83.1585 93.6089 82.1349 89.8558 81.4525ZM403.244 5.19529C398.297 3.48931 393.008 2.29513 387.72 1.10095C384.649 0.418558 382.09 1.10094 380.384 3.31871C372.707 13.2134 365.542 23.7904 358.377 34.1969C353.941 40.509 356.5 38.6325 360.253 36.4147C374.754 27.7142 389.937 19.8667 404.097 10.4838C408.362 7.58367 407.509 6.73067 403.244 5.19529ZM71.2606 24.814C67.5074 26.3494 63.5837 27.8848 59.8305 29.2496C54.0302 31.4674 55.2244 32.1497 59.1482 34.3675C69.5546 39.9972 80.3023 45.1152 91.0499 50.4037C95.9973 52.7921 96.1679 52.2803 93.2677 48.0153C88.6616 40.8502 83.7142 33.8557 78.4257 27.0318C76.0373 23.6199 74.8431 23.2787 71.2606 24.814ZM381.749 96.1239C374.925 90.4942 367.93 85.2057 360.765 80.0877C358.206 78.2112 357.012 78.723 358.377 81.7937C363.324 92.712 368.101 103.801 373.389 114.548C376.119 120.178 376.631 119.666 378.848 114.378C380.384 110.795 381.919 107.383 383.455 103.971C386.014 98.0005 385.161 98.8535 381.749 96.1239ZM98.3857 96.6357C88.8322 103.971 79.4493 111.648 70.4076 119.666C66.4839 123.078 67.1662 124.102 71.2606 123.761C74.3314 123.59 77.2315 123.42 80.3023 122.908C84.5672 122.225 86.1026 121.372 89.6852 116.254C93.7795 110.284 97.7032 104.483 101.456 98.1711C105.551 90.8354 100.262 95.1003 98.3857 96.6357Z" fill="#EB8382"/>
<path d="M381.237 108.577C380.896 108.748 380.384 108.748 380.043 108.919C375.266 109.942 372.195 103.63 369.977 100.389C366.565 95.2708 363.153 89.9823 359.912 84.6937C359.4 83.6701 358.718 82.8172 358.206 81.7936C363.153 92.7118 367.93 103.801 373.048 114.548C375.778 120.178 376.289 119.666 378.507 114.378C379.701 112.501 380.554 110.625 381.237 108.577Z" fill="#C37A87"/>
<path d="M459.712 37.9499C458.688 36.7557 457.665 35.7321 456.641 34.538C457.665 36.7557 458.517 39.1441 459.541 41.3619C461.076 44.6032 463.977 50.9154 458.688 51.939C452.717 53.1331 446.234 53.1331 440.264 53.6449C418.598 55.0097 396.761 55.8627 375.095 56.8863C369.465 57.0569 364.006 57.3981 358.377 57.7393C359.571 58.0805 362.3 57.7393 362.642 57.7393C397.955 57.3981 433.44 57.5687 468.924 56.0333C472.677 55.8627 474.895 56.2039 471.483 51.7684C467.73 46.821 463.635 42.3855 459.712 37.9499Z" fill="#C37A87"/>
<path d="M390.62 14.2368C386.696 17.1369 382.772 20.2077 378.848 23.1079C374.413 26.3492 370.148 29.7612 365.883 33.0025C378.678 25.4962 391.814 18.6723 404.097 10.313C408.362 7.41285 407.509 6.55986 403.244 5.19508C399.832 4.00089 396.42 3.14791 393.008 2.29492C394.543 3.6597 395.567 5.19509 395.738 7.24226C396.079 10.4836 392.837 12.5308 390.62 14.2368Z" fill="#C37A87"/>
<path d="M98.3857 96.6356C98.2151 96.8062 98.0445 96.9768 97.8739 97.1474C95.6561 103.118 86.7851 113.525 85.4203 114.89C82.1789 118.302 78.5964 121.202 74.6726 123.59C76.7198 123.419 78.5964 123.249 80.4729 122.908C84.7379 122.225 86.2733 121.372 89.8558 116.254C93.9502 110.283 97.8739 104.483 101.627 98.171C105.551 90.8353 100.262 95.1002 98.3857 96.6356Z" fill="#C37A87"/>
<path d="M83.0318 44.7738C78.0845 41.7031 72.9666 38.4617 68.3604 34.8792C66.3132 33.3438 64.4367 31.2966 64.0955 28.7376C64.0955 28.3964 64.0955 27.8847 64.0955 27.5435C62.5601 28.0553 61.1953 28.7376 59.6599 29.2494C53.8596 31.4672 55.0538 32.1496 58.9775 34.3674C69.384 39.9971 80.1317 45.115 90.8793 50.4036C92.7559 51.2565 93.7795 51.7684 94.4619 51.9389C90.8793 49.5506 86.9556 47.1622 83.0318 44.7738Z" fill="#C37A87"/>
<path d="M93.6089 84.0115C77.7433 85.7174 61.7071 86.5704 45.6709 87.594C40.7236 87.9352 35.7763 88.1058 30.8289 87.9352C25.711 87.7646 20.0813 87.4234 15.4751 85.2057C10.6984 82.9879 7.79824 78.8935 4.55688 75.1404C6.77466 80.5995 9.163 86.0586 11.8926 91.3472C14.4515 96.2945 14.7927 95.9533 20.2519 95.2709C43.7944 92.5414 67.1663 88.9588 90.3676 84.8644C91.7323 84.5233 92.7559 84.1821 93.6089 84.0115Z" fill="#C37A87"/>
</svg>
