<svg width="261" height="266" viewBox="0 0 261 266" fill="none" xmlns="http://www.w3.org/2000/svg">
<path fill-rule="evenodd" clip-rule="evenodd" d="M244.277 7.75459C227.629 -2.34867 201.451 -2.33924 184.433 16.2032C179.834 21.2145 176.05 25.7491 172.615 29.8662L172.614 29.8675C170.855 31.9761 169.187 33.9752 167.547 35.8728C162.717 41.4632 158.16 46.1408 152.332 49.9961C140.673 57.7089 124.022 62.0701 90.1136 64.1252C73.3563 65.1408 62.4166 73.9455 57.1221 86.4181C56.2885 88.3818 55.5945 90.4376 55.0399 92.5695C61.0044 85.1474 70 80.2609 82.0393 79.5308C114.234 77.5787 129.832 73.4397 140.682 66.2583C146.109 62.6664 150.371 58.2984 154.94 53.0069C156.479 51.2256 158.055 49.3359 159.722 47.3366L159.722 47.3364L159.723 47.3358C162.996 43.4108 166.622 39.0637 171.005 34.2849C187.539 16.2613 212.942 16.2707 229.095 26.0784C237.181 30.9876 243.001 38.383 244.2 47.258C245.401 56.1413 241.956 66.387 231.758 76.9593C225.566 83.3779 225.062 93.3333 225.972 105.085C226.225 108.363 226.589 111.777 226.962 115.276L226.962 115.276C227.916 124.235 228.93 133.756 228.316 143.015C227.638 153.237 224.975 163.204 218.058 171.868C220.943 170.127 223.51 168.281 225.794 166.345C237.913 156.072 242.075 143.213 242.965 129.808C243.605 120.164 242.553 110.291 241.552 100.899L241.552 100.899L241.552 100.897L241.552 100.896C241.157 97.1945 240.771 93.5675 240.499 90.059C239.544 77.73 240.003 66.8015 246.873 59.6839C257.457 48.7173 260.898 38.2382 259.688 29.2926C258.478 20.3387 252.592 12.8009 244.277 7.75459ZM56.2016 86.0273C55.056 88.726 54.1695 91.5901 53.5403 94.58C52.0967 96.667 50.8671 98.923 49.8511 101.318C48.5785 104.317 47.6422 107.531 47.0395 110.9C39.5984 114.514 34.3126 120.518 31.1752 127.916C27.8289 135.806 26.9339 145.26 28.4386 155.064C16.0121 157.268 7.66704 164.71 3.3867 174.785C-1.43075 186.124 -1.08364 200.75 4.26767 214.932C14.9806 243.323 45.7846 270.051 95.8298 265.484C125.213 262.803 143.322 255.909 154.289 246.62C165.278 237.312 169.033 225.656 169.833 213.623C169.912 212.436 169.962 211.244 169.987 210.05C175.872 207.41 180.681 204.39 184.594 201.07C189.116 197.233 192.433 193.005 194.833 188.518C201.691 185.591 207.22 182.193 211.657 178.43C213.288 177.047 214.77 175.615 216.116 174.141C220.061 171.97 223.482 169.616 226.44 167.108C238.827 156.608 243.061 143.458 243.963 129.875C244.609 120.138 243.542 110.126 242.538 100.704L242.538 100.703C242.146 97.0217 241.763 93.4309 241.496 89.9818C240.539 77.6219 241.068 67.1389 247.592 60.3784C258.321 49.2619 261.941 38.4925 260.679 29.1586C259.418 19.833 253.299 12.0604 244.796 6.8997C227.806 -3.41101 201.086 -3.42043 183.696 15.527C179.083 20.5534 175.268 25.1253 171.824 29.2536L171.823 29.2537L171.823 29.2542L171.821 29.2563L171.821 29.2568C170.067 31.3587 168.409 33.3456 166.791 35.219C161.981 40.7854 157.494 45.382 151.78 49.1621C140.355 56.7199 123.935 61.0736 90.0531 63.127C72.9155 64.1656 61.6437 73.2071 56.2016 86.0273ZM4.30708 175.176C8.45316 165.417 16.5129 158.199 28.5981 156.051C29.314 160.275 30.4731 164.557 32.0711 168.799C32.4679 169.853 32.8919 170.904 33.3429 171.951C32.9781 172.638 32.6414 173.344 32.3329 174.069C28.7107 182.575 28.9757 193.535 32.9904 204.151C41.0301 225.409 64.1426 245.405 101.663 241.99C123.67 239.986 137.257 234.832 145.495 227.87C149.913 224.137 152.774 219.9 154.573 215.387C159.958 213.967 164.738 212.327 168.976 210.495C168.949 211.518 168.903 212.538 168.835 213.556C168.047 225.411 164.364 236.776 153.643 245.857C142.901 254.955 125.029 261.816 95.7389 264.488C46.1478 269.013 15.7597 242.556 5.20328 214.579C-0.0800833 200.577 -0.386972 186.225 4.30708 175.176ZM155.006 214.237C160.245 212.823 164.888 211.199 168.999 209.394C169.062 204.956 168.791 200.491 168.4 196.086C164.899 196.726 161.201 197.293 157.296 197.784C157.326 199.574 157.294 201.362 157.176 203.136C156.924 206.92 156.28 210.657 155.006 214.237ZM156.299 197.907C156.325 199.633 156.292 201.356 156.178 203.069C155.916 207.011 155.223 210.876 153.826 214.549C145.71 216.655 136.2 218.268 125.068 219.286C76.7447 223.703 46.3518 199.137 34.4543 172C38.2698 165.133 45.081 160.423 54.9876 159.825C56.1854 159.752 57.3509 159.676 58.4852 159.595C74.0654 183.649 104.4 202.756 148.971 198.684C151.491 198.453 153.932 198.194 156.299 197.907ZM157.274 196.779C161.157 196.289 164.832 195.723 168.309 195.086C168.086 192.694 167.833 190.322 167.584 187.983L167.584 187.983V187.982L167.55 187.666C165.262 187.938 162.908 188.184 160.487 188.405C159.225 188.521 157.973 188.618 156.733 188.698C156.987 191.362 157.195 194.07 157.274 196.779ZM155.734 188.76C155.992 191.451 156.202 194.177 156.278 196.903C153.891 197.193 151.426 197.455 148.88 197.688C104.976 201.699 75.0965 183.047 59.6245 159.511C64.8834 159.113 69.4569 158.616 73.4739 158.008C90.62 177.154 118.139 190.923 155.734 188.76ZM156.636 187.703C157.878 187.623 159.131 187.525 160.396 187.409C162.813 187.189 165.162 186.943 167.444 186.672C167.144 183.847 166.859 181.075 166.65 178.381C165.804 167.469 166.207 157.77 172.313 151.45C181.681 141.751 184.719 132.492 183.65 124.597C182.581 116.693 177.38 110.034 170.024 105.574C155.295 96.6428 132.136 96.6523 117.081 113.042C113.007 117.477 109.657 121.488 106.614 125.132L106.614 125.133C105.055 127 103.576 128.77 102.123 130.451C97.8426 135.401 93.801 139.546 88.6317 142.963C83.5772 146.303 77.4664 148.934 69.0322 150.962C70.5338 153.001 72.1428 154.996 73.8591 156.937C84.2713 155.314 90.7614 152.932 95.7814 149.621C99.5517 147.135 102.516 144.11 105.701 140.434C106.772 139.198 107.87 137.886 109.033 136.497C111.319 133.766 113.855 130.737 116.917 127.411C128.512 114.816 146.322 114.826 157.647 121.677C163.318 125.108 167.416 130.286 168.261 136.515C169.107 142.753 166.675 149.922 159.535 157.297C155.267 161.706 154.904 168.56 155.54 176.737C155.716 179.008 155.969 181.376 156.229 183.806V183.806C156.366 185.089 156.505 186.39 156.636 187.703ZM74.6541 157.823C84.7865 156.189 91.2632 153.799 96.332 150.456C100.216 147.895 103.251 144.789 106.457 141.089C107.548 139.83 108.656 138.506 109.824 137.11C112.101 134.39 114.604 131.399 117.652 128.088C128.876 115.897 146.146 115.888 157.129 122.533C162.612 125.85 166.476 130.794 167.27 136.65C168.063 142.498 165.812 149.376 158.817 156.601C154.203 161.367 153.91 168.669 154.543 176.814C154.724 179.145 154.981 181.549 155.243 184.001C155.376 185.244 155.51 186.5 155.636 187.764C118.695 189.879 91.6265 176.492 74.6541 157.823ZM72.6844 157.114C71.0118 155.194 69.4418 153.223 67.9746 151.211C64.4076 152.029 60.4347 152.745 55.9661 153.367C56.904 155.116 57.9171 156.847 59.0052 158.554C64.1991 158.172 68.7172 157.695 72.6844 157.114ZM57.8733 158.635C56.8134 156.948 55.8255 155.238 54.9096 153.511C48.761 154.332 41.6933 154.981 33.485 155.478C32.1427 155.56 30.8425 155.697 29.5845 155.889C30.2889 160.043 31.43 164.26 33.0069 168.447C33.3093 169.249 33.6277 170.051 33.962 170.85C38.0076 164.049 44.996 159.427 54.9273 158.827C55.9323 158.766 56.914 158.702 57.8733 158.635ZM33.8628 173.13C46.1508 200.361 76.8291 224.699 125.159 220.282C136.004 219.29 145.338 217.734 153.362 215.7C151.604 219.824 148.901 223.683 144.85 227.106C136.837 233.878 123.488 238.998 101.572 240.994C64.5045 244.368 41.8084 224.64 33.9258 203.797C29.9793 193.362 29.7547 182.676 33.2529 174.461C33.4449 174.01 33.6482 173.566 33.8628 173.13ZM183.947 200.307C180.207 203.48 175.618 206.386 170.004 208.945C170.042 204.592 169.771 200.212 169.387 195.902C178.727 194.139 186.645 191.854 193.346 189.136C191.056 193.118 187.995 196.873 183.947 200.307ZM194.115 187.736C187.274 190.622 179.084 193.049 169.296 194.902C169.073 192.5 168.819 190.123 168.57 187.788L168.57 187.787L168.544 187.547C179.31 186.226 188.593 184.355 196.588 182.019C195.909 183.964 195.091 185.873 194.115 187.736ZM196.974 180.862C188.899 183.27 179.46 185.2 168.438 186.552C168.138 183.726 167.854 180.967 167.647 178.303C166.799 167.361 167.272 158.108 173.032 152.144C182.545 142.296 185.762 132.747 184.641 124.463C183.521 116.187 178.087 109.293 170.543 104.719C155.472 95.5806 131.771 95.5711 116.344 112.365C112.256 116.815 108.875 120.864 105.823 124.519L105.823 124.52C104.268 126.381 102.8 128.139 101.366 129.797C97.107 134.723 93.1358 138.787 88.0803 142.128C83.0611 145.446 76.9506 148.066 68.3953 150.086C64.0213 143.988 60.5983 137.522 58.1328 130.983C55.4236 123.797 53.8723 116.528 53.4822 109.563C56.043 108.869 58.8052 108.418 61.7699 108.238C92.3138 106.386 107.324 102.453 117.837 95.4923C123.092 92.0129 127.201 87.7918 131.552 82.7507C133.03 81.039 134.532 79.2366 136.117 77.3357L136.118 77.3339L136.119 77.3335L136.119 77.3331L136.119 77.3328L136.12 77.3318C139.214 73.621 142.62 69.5354 146.761 65.0189C162.072 48.3223 185.624 48.3129 200.602 57.411C208.083 61.9547 213.373 68.7388 214.461 76.7929C215.548 84.8388 212.457 94.2718 202.931 104.151C196.726 110.586 196.316 120.46 197.176 131.573C197.421 134.74 197.769 138.012 198.125 141.351V141.351V141.352V141.352L198.125 141.352C199.026 149.817 199.974 158.712 199.397 167.402C199.092 171.994 198.362 176.514 196.974 180.862ZM57.1971 131.335C59.6482 137.837 63.0319 144.261 67.3404 150.329C63.8175 151.123 59.8899 151.819 55.4695 152.426C54.038 149.668 52.7921 146.87 51.7324 144.058C47.5308 132.908 46.2613 121.549 47.9367 111.58C49.3749 110.909 50.8949 110.328 52.4969 109.845C52.9142 116.854 54.4861 124.145 57.1971 131.335ZM50.7966 144.411C51.8295 147.152 53.0365 149.878 54.4171 152.567C48.388 153.361 41.4612 153.993 33.4246 154.48C32.0489 154.563 30.7158 154.705 29.4252 154.902C27.9469 145.257 28.8343 135.996 32.0959 128.306C35.0471 121.348 39.9479 115.657 46.837 112.119C45.3022 122.118 46.6432 133.388 50.7966 144.411ZM195.55 187.115C201.814 184.335 206.898 181.155 211.01 177.668C211.797 177 212.549 176.321 213.267 175.631C208.752 177.875 203.61 179.899 197.763 181.669C197.15 183.517 196.418 185.335 195.55 187.115ZM198.13 180.511C204.837 178.44 210.579 176.031 215.488 173.345C223.584 164.409 226.593 153.871 227.318 142.949C227.926 133.782 226.927 124.398 225.976 115.47C225.601 111.95 225.233 108.5 224.975 105.162C224.067 93.4414 224.502 83.0406 231.038 76.265C241.092 65.8426 244.357 55.8872 243.209 47.3919C242.06 38.8884 236.473 31.7279 228.576 26.9332C212.765 17.3331 187.904 17.3425 171.742 34.9609C167.372 39.7249 163.778 44.035 160.514 47.9489L160.514 47.9491L160.513 47.95C158.841 49.9549 157.256 51.8558 155.697 53.6605C151.107 58.976 146.775 63.4251 141.234 67.0922C130.149 74.4287 114.321 78.5752 82.0999 80.529C69.4024 81.2989 60.2234 86.7799 54.478 94.983C53.5936 99.2729 53.2456 103.833 53.4332 108.541C55.9993 107.862 58.7579 107.419 61.7094 107.24C92.2266 105.389 107.006 101.464 117.285 94.6585C122.426 91.2543 126.465 87.1143 130.795 82.0972C132.253 80.4091 133.746 78.6181 135.326 76.723L135.327 76.7213L135.327 76.7209L135.328 76.7201C138.431 72.998 141.868 68.8748 146.024 64.343C161.706 47.2411 185.801 47.2504 201.121 56.5563C208.79 61.2145 214.314 68.2335 215.452 76.659C216.591 85.0928 213.321 94.8161 203.65 104.845C197.79 110.923 197.31 120.352 198.173 131.496C198.413 134.603 198.758 137.839 199.111 141.157C200.016 149.653 200.977 158.686 200.395 167.468C200.101 171.898 199.415 176.277 198.13 180.511ZM52.4439 108.818C52.2694 104.813 52.4752 100.907 53.0642 97.1714C52.2048 98.6158 51.4408 100.131 50.7717 101.708C49.6171 104.429 48.7444 107.337 48.1532 110.384C49.5151 109.783 50.9454 109.259 52.4439 108.818Z" fill="white"/>
</svg>
