<svg id="small_gear" width="84" height="84" viewBox="0 0 84 84" fill="none" xmlns="http://www.w3.org/2000/svg">
<path d="M17.1607 62.3783C14.1664 63.8949 10.3943 62.4949 8.761 59.2673C7.10828 56.0201 8.21658 52.1508 11.2109 50.6342C11.3665 50.5564 11.522 50.4981 11.6776 50.4203C11.1137 48.6315 10.7054 46.8232 10.4137 45.015C10.2387 45.015 10.0637 45.015 9.88873 44.9955C6.46662 44.6844 3.76395 41.554 3.82227 37.9763C3.90005 34.3987 6.7194 31.7543 10.1415 32.0654C10.3165 32.0848 10.4915 32.1043 10.6665 32.1432C11.0165 30.3738 11.522 28.6433 12.1248 26.9711C11.9692 26.8739 11.8137 26.7767 11.6581 26.6795C8.74154 24.6379 7.7888 20.5936 9.57764 17.6381C11.347 14.7021 15.158 13.9827 18.0746 16.0243C18.2301 16.1215 18.3662 16.2382 18.5023 16.3548C19.6495 15.0715 20.9328 13.8854 22.2939 12.816C22.1967 12.6605 22.0994 12.5049 22.0217 12.3299C20.3689 9.08283 18.2301 5.54406 21.2439 4.06633C28.2242 0.663668 31.2186 3.58025 32.8713 6.82736C32.9491 7.00236 33.0268 7.1579 33.1046 7.3329C34.7768 6.86625 36.4878 6.5357 38.1989 6.36071C38.1794 6.18571 38.1794 5.99127 38.1794 5.81627C38.2572 2.23862 37.1878 0.313684 40.6294 0.255353C48.1152 0.119246 50.6429 3.36637 50.5652 6.92458C50.5652 7.11902 50.5457 7.294 50.5263 7.469C52.2373 7.95509 53.9289 8.57729 55.5622 9.3356C55.64 9.18004 55.7178 9.02451 55.815 8.86896C57.5844 5.93295 61.3953 5.21352 64.3119 7.25512C67.2285 9.29672 68.1812 13.341 66.3924 16.2965C66.2952 16.452 66.1979 16.5881 66.1007 16.7242C67.4035 18.027 68.609 19.4269 69.7367 20.9436C69.8728 20.8463 70.0284 20.7685 70.1839 20.6908C73.1783 19.1742 76.9504 20.5741 78.5837 23.8018C80.2364 27.0489 79.1281 30.9182 76.1337 32.4348C75.9782 32.5126 75.8226 32.5709 75.6671 32.6487C76.231 34.4375 76.6393 36.2458 76.9309 38.0541C77.1059 38.0541 77.2809 38.0541 77.4559 38.0735C80.878 38.3846 83.5807 41.5151 83.5224 45.0927C83.4446 48.6704 80.6253 51.3148 77.2032 51.0037C77.0282 50.9842 76.8532 50.9648 76.6782 50.9259C76.3282 52.6953 75.8226 54.4258 75.2199 56.0979C75.3754 56.1951 75.531 56.2924 75.6865 56.3896C78.6031 58.4312 79.5558 62.4755 77.767 65.4309C75.9976 68.367 70.1256 69.728 67.209 67.6864C67.0535 67.5892 68.9784 66.8309 68.8423 66.7142C67.6951 67.9975 66.4118 69.1836 65.0508 70.253C65.148 70.4086 65.2452 70.5641 65.323 70.7391C66.9757 73.9862 65.8674 77.8555 62.8731 79.3722C59.8787 80.8888 56.1066 79.4888 54.4734 76.2611C54.3956 76.0862 54.3178 75.9306 54.24 75.7556C52.5679 76.2223 50.8568 76.5528 49.1458 76.7278C49.1652 76.9028 49.1652 77.0972 49.1652 77.2722C49.0874 80.8499 46.2681 83.4942 42.846 83.1831C39.4239 82.872 36.7212 79.7416 36.7795 76.1639C36.7795 75.9695 36.7989 75.7945 36.8184 75.6195C35.1073 75.1334 33.4157 74.5112 31.7824 73.7529C31.7047 73.9084 31.6269 74.064 31.5297 74.2195C29.7603 77.1556 25.9493 77.875 23.0327 75.8334C20.1162 73.7918 19.1634 69.7475 20.9523 66.792C21.0495 66.6365 21.1467 66.5004 21.2439 66.3643C19.9412 65.0615 18.7357 63.6616 17.6079 62.145C17.4524 62.2227 17.3163 62.3005 17.1607 62.3783ZM54.5122 62.8644C65.4008 57.3423 69.3673 43.3039 63.3786 31.5404C57.3899 19.7575 43.7209 14.6826 32.8518 20.2047C21.9633 25.7267 17.9968 39.7651 23.9855 51.5286C29.9547 63.3116 43.6237 68.3864 54.5122 62.8644Z" fill="url(#paint0_linear_39_3402)"/>
<path d="M9.88885 44.9953C6.46675 44.6842 3.76407 41.5538 3.8224 37.9761C3.90018 34.3985 6.71952 31.7541 10.1416 32.0652C10.3166 32.0847 10.4916 32.1041 10.6666 32.143C11.0166 30.3736 11.5221 28.6431 12.1249 26.971C11.9693 26.8737 11.8138 26.7765 11.6582 26.6793C8.74166 24.6377 5.10567 19.6795 7.18616 16.938C11.0944 11.727 15.1581 13.9825 18.0747 16.0435C18.2302 16.1407 18.3664 16.2574 18.5025 16.3741C19.6496 15.0908 20.9329 13.9047 22.294 12.8353C22.1968 12.6798 22.0996 12.5242 22.0218 12.3492C21.1274 10.5798 21.0496 8.63545 21.6329 6.98273C24.4523 11.9603 27.2522 16.9574 29.9743 21.9739C21.3024 28.332 18.5219 40.8733 23.9662 51.5479C28.5549 60.6087 37.6935 65.6835 46.6182 65.0419C47.0071 66.0724 47.4154 67.1029 47.8237 68.1335C48.9709 70.9139 50.2931 73.6166 51.6152 76.3388C50.7792 76.4943 49.9625 76.6109 49.1264 76.7082C49.1459 76.8832 49.1459 77.0776 49.1459 77.2526C49.0681 80.8303 46.9098 83.8635 40.7073 83.533C37.2852 83.358 36.6824 79.722 36.7602 76.1443C36.7602 75.9499 36.7796 75.7749 36.7991 75.5999C35.088 75.1138 33.3964 74.4916 31.7631 73.7333C31.6853 73.8888 31.6076 74.0444 31.5104 74.1999C29.741 77.1359 23.5967 78.3803 20.6607 76.3388C17.7442 74.2972 19.1441 69.7084 20.9135 66.7724C21.0107 66.6168 21.1079 66.4807 21.2052 66.3446C19.9024 65.0419 18.6969 63.6419 17.5692 62.1253C17.433 62.2225 17.2775 62.3003 17.122 62.3781C14.1276 63.8947 10.3555 62.4948 8.72223 59.2671C7.0695 56.02 8.1778 52.1507 11.1721 50.634C11.3277 50.5563 11.4832 50.4979 11.6388 50.4202C11.0749 48.6313 10.6666 46.8231 10.375 45.0148C10.2388 45.0148 10.0639 45.0148 9.88885 44.9953Z" fill="url(#paint1_linear_39_3402)"/>
<path d="M13.9332 62.7474C10.9389 64.2641 7.16674 62.8641 5.53346 59.6364C3.88074 56.3893 4.98906 52.52 7.9834 51.0034C8.13895 50.9256 8.29448 50.8673 8.45004 50.7895C7.88616 49.0007 7.47784 47.1924 7.18619 45.3841C7.01119 45.3841 6.8362 45.3841 6.66122 45.3647C3.23911 45.0536 0.53643 41.9231 0.594757 38.3455C0.672531 34.7678 3.49188 32.1235 6.91399 32.4346C7.08899 32.454 7.26397 32.4735 7.43896 32.5123C7.78896 30.743 8.29449 29.0125 8.89725 27.3403C8.7417 27.2431 8.58614 27.1459 8.4306 27.0486C5.51402 25.007 4.56129 20.9627 6.35012 18.0073C8.11951 15.0713 11.9305 14.3518 14.847 16.3934C15.0026 16.4907 15.1387 16.6073 15.2748 16.724C16.422 15.4407 17.7053 14.2546 19.0664 13.1852C18.9691 13.0297 18.8719 12.8741 18.7941 12.6991C17.1414 9.452 18.2497 5.58268 21.2441 4.06607C24.2384 2.54945 28.0105 3.9494 29.6438 7.17707C29.7215 7.35207 29.7993 7.50761 29.8771 7.68261C31.5493 7.21596 33.2603 6.88541 34.9714 6.71042C34.9519 6.53542 34.9519 6.341 34.9519 6.16601C35.0297 2.58835 37.8491 -0.0560125 41.2712 0.255088C44.6933 0.566189 47.396 3.69664 47.3376 7.27429C47.3376 7.46873 47.3182 7.64373 47.2987 7.81873C49.0098 8.30482 50.7014 8.92702 52.3347 9.68533C52.4125 9.52978 52.4902 9.37422 52.5874 9.21867C54.3568 6.28266 58.1678 5.56325 61.0844 7.60485C64.001 9.64645 64.9537 13.6908 63.1649 16.6462C63.0677 16.8018 62.9704 16.9379 62.8732 17.074C64.1759 18.3767 65.3815 19.7766 66.5092 21.2933C66.6453 21.196 66.8009 21.1183 66.9564 21.0405C69.9508 19.5239 73.7229 20.9238 75.3561 24.1515C77.0089 27.3986 75.9006 31.268 72.9062 32.7846C72.7507 32.8623 72.5951 32.9207 72.4396 32.9984C73.0034 34.7873 73.4118 36.5955 73.7034 38.4038C73.8784 38.4038 74.0534 38.4038 74.2284 38.4233C77.6505 38.7344 80.3532 41.8648 80.2948 45.4425C80.2171 49.0201 77.3977 51.6645 73.9756 51.3534C73.8006 51.3339 73.6256 51.3145 73.4506 51.2756C73.1007 53.045 72.5951 54.7755 71.9924 56.4477C72.1479 56.5449 72.3035 56.6421 72.459 56.7393C75.3756 58.7809 76.3283 62.8252 74.5395 65.7807C72.7701 68.7167 68.9591 69.4361 66.0426 67.3945C65.887 67.2973 65.7509 67.1806 65.6148 67.064C64.4676 68.3473 63.1843 69.5333 61.8232 70.6027C61.9205 70.7583 62.0177 70.9138 62.0955 71.0888C63.7482 74.336 62.6399 78.2053 59.6455 79.7219C56.6512 81.2385 52.8791 79.8385 51.2458 76.6109C51.1681 76.4359 51.0903 76.2803 51.0125 76.1053C49.3403 76.572 47.6293 76.9025 45.9182 77.0775C45.9377 77.2525 45.9377 77.447 45.9377 77.622C45.8599 81.1996 43.0406 83.844 39.6184 83.5329C36.1963 83.2218 33.4937 80.0913 33.552 76.5136C33.552 76.3192 33.5714 76.1442 33.5909 75.9692C31.8798 75.4831 30.1882 74.8609 28.5549 74.1026C28.4771 74.2582 28.3994 74.4137 28.3022 74.5693C26.5328 77.5053 22.7218 78.2247 19.8052 76.1831C16.8886 74.1415 15.9359 70.0972 17.7247 67.1417C17.822 66.9862 17.9192 66.8501 18.0164 66.714C16.7137 65.4113 15.5081 64.0113 14.3804 62.4947C14.2248 62.5919 14.0887 62.6697 13.9332 62.7474ZM51.2847 63.2335C62.1732 57.7115 66.1398 43.6731 60.1511 31.9096C54.1624 20.1267 40.4934 15.0518 29.6243 20.5739C18.7358 26.0959 14.7693 40.1343 20.758 51.8978C26.7272 63.6807 40.3962 68.7556 51.2847 63.2335Z" fill="url(#paint2_linear_39_3402)"/>
<defs>
<linearGradient id="paint0_linear_39_3402" x1="33.9807" y1="-0.143926" x2="65.6694" y2="136.042" gradientUnits="userSpaceOnUse">
<stop stop-color="#444B8C"/>
<stop offset="0.9964" stop-color="#26264F"/>
</linearGradient>
<linearGradient id="paint1_linear_39_3402" x1="15.2881" y1="4.20551" x2="46.9768" y2="140.392" gradientUnits="userSpaceOnUse">
<stop stop-color="#444B8C"/>
<stop offset="0.9964" stop-color="#26264F"/>
</linearGradient>
<linearGradient id="paint2_linear_39_3402" x1="9.06512" y1="81.6801" x2="123.71" y2="-63.505" gradientUnits="userSpaceOnUse">
<stop stop-color="#826F8C"/>
<stop offset="0.9964" stop-color="#446381"/>
</linearGradient>
</defs>
</svg>
