<svg width="86" height="49" viewBox="0 0 86 60" preserveAspectRatio="xMidYMin meet" fill="none" xmlns="http://www.w3.org/2000/svg">
<path d="M33.184 9.73869L17.6696 8.60349C44.8604 1.84634 64.375 -0.586232 70.9159 0.116511C77.4568 0.819253 84.7004 4.87355 85.241 12.4415C85.7816 20.0095 85.6194 24.8747 85.6194 24.8747C84.2139 30.5507 69.6726 37.0916 69.6726 37.0916C69.6726 37.0916 65.5642 30.1723 65.4561 25.9558C65.348 21.7394 66.1588 18.7662 66.1588 18.7662C69.186 17.5229 75.4567 15.7931 77.0784 12.3875C81.5111 3.08966 59.4017 5.73845 55.8339 6.11685C48.2659 6.92771 40.6439 8.06292 33.184 9.73869Z" fill="url(#paint0_linear_39_2331)"/>
<path d="M1.66908 19.1452C2.64211 16.2802 4.31788 13.5773 7.02074 12.4421C7.02074 12.4421 7.07479 12.4421 7.07479 12.3881L20.1566 6.60394C20.9675 6.17148 21.8864 5.9012 22.8595 5.79308C29.4004 5.19845 36.5359 6.82018 43.2931 7.90132C43.5093 7.95538 43.7255 7.95537 43.9417 8.00943C44.158 8.06349 44.3742 8.11755 44.5904 8.17161C51.4016 9.68521 58.4831 10.8204 65.1321 13.9557C69.1324 15.8477 71.619 20.1182 72.9704 24.1185C75.1868 30.8756 74.1056 38.4436 69.2945 41.4708H69.2405C68.5918 41.8492 67.9431 42.1735 67.1863 42.3898L54.9694 48.0117C53.2936 48.8766 51.2935 49.2009 48.8609 48.8766C41.1848 47.8495 30.914 45.7413 30.914 45.7413C30.914 45.7413 20.6972 43.9033 12.967 42.0113C2.58806 39.3625 -1.03378 27.2538 1.66908 19.1452Z" fill="url(#paint1_linear_39_2331)"/>
<path d="M1.66878 19.1444C2.85804 15.6307 5.1825 12.2791 9.18272 11.9008C15.7236 11.3061 22.8592 12.9278 29.6163 14.009C29.8325 14.063 30.0488 14.063 30.265 14.1171C30.4812 14.1712 30.6975 14.2252 30.9137 14.2793C37.7249 15.7929 44.8064 16.9281 51.4554 20.0634C55.4556 21.9554 57.9422 26.2259 59.2937 30.2261C62.3209 39.4158 59.1856 50.2272 48.8066 48.8218C41.1305 47.7947 30.8596 45.6864 30.8596 45.6864C30.8596 45.6864 20.6428 43.8485 12.9127 41.9565C2.58775 39.3618 -1.03408 27.253 1.66878 19.1444Z" fill="url(#paint2_linear_39_2331)"/>
<path d="M4.10099 20.4422C5.18214 17.3069 7.29037 14.3337 10.9122 14.0094C16.8585 13.5229 23.3453 14.9283 29.5078 15.9014C29.7241 15.9554 29.8862 15.9554 30.1025 16.0095C30.3187 16.0636 30.4809 16.1176 30.6971 16.1176C36.8596 17.469 43.3465 18.4961 49.3468 21.253C53.0227 22.9288 55.239 26.7128 56.4823 30.2806C59.2393 38.4432 56.3742 48.0113 46.9683 46.822C39.9949 45.9031 30.6971 44.0111 30.6971 44.0111C30.6971 44.0111 21.3993 42.3893 14.3718 40.6595C4.91185 38.3351 1.66842 27.6318 4.10099 20.4422Z" fill="url(#paint3_linear_39_2331)"/>
<path d="M31.3457 11.3067L36.9676 9.41471C37.1838 9.36066 37.4541 9.3066 37.7244 9.41471L48.0493 11.6851C48.4277 11.7392 48.5899 12.2257 48.2656 12.3338L42.6436 14.2258C42.4274 14.2799 42.1571 14.3339 41.8868 14.2258L31.5619 11.9554C31.2376 11.9013 31.0213 11.4148 31.3457 11.3067Z" fill="url(#paint4_linear_39_2331)"/>
<path d="M29.5084 15.9006C29.7246 15.9547 29.8868 15.9547 30.103 16.0087C30.3192 16.0628 30.4814 16.1169 30.6977 16.1169L42.9146 46.2267C37.617 45.4158 32.2112 44.3347 30.9139 44.0644L18.751 14.2249C22.3729 14.6573 25.9947 15.3601 29.5084 15.9006Z" fill="url(#paint5_linear_39_2331)"/>
<path d="M42.1037 18.6578L53.1313 45.6864C51.5096 46.6594 49.5095 47.1459 46.9688 46.8216C46.8067 46.8216 46.5904 46.7675 46.3742 46.7675L34.2114 16.928C36.8602 17.4145 39.509 17.9551 42.1037 18.6578Z" fill="url(#paint6_linear_39_2331)"/>
<defs>
<linearGradient id="paint0_linear_39_2331" x1="58.8582" y1="-13.2864" x2="48.2809" y2="30.6097" gradientUnits="userSpaceOnUse">
<stop stop-color="#EEBA9C"/>
<stop offset="0.9892" stop-color="#EB8382"/>
</linearGradient>
<linearGradient id="paint1_linear_39_2331" x1="15.9083" y1="8.23225" x2="69.6155" y2="55.8757" gradientUnits="userSpaceOnUse">
<stop stop-color="#826F8C"/>
<stop offset="0.9946" stop-color="#446381"/>
</linearGradient>
<linearGradient id="paint2_linear_39_2331" x1="19.5305" y1="4.59244" x2="47.0317" y2="69.4669" gradientUnits="userSpaceOnUse">
<stop stop-color="#E474C6"/>
<stop offset="0.9892" stop-color="#0E7CF7"/>
</linearGradient>
<linearGradient id="paint3_linear_39_2331" x1="27.4599" y1="13.3787" x2="35.5693" y2="61.3295" gradientUnits="userSpaceOnUse">
<stop stop-color="#D2F9FF"/>
<stop offset="0.9946" stop-color="#618DD6"/>
</linearGradient>
<linearGradient id="paint4_linear_39_2331" x1="36.7511" y1="5.5312" x2="43.6264" y2="19.6343" gradientUnits="userSpaceOnUse">
<stop stop-color="#6F469E"/>
<stop offset="1" stop-color="#360F6E"/>
</linearGradient>
<linearGradient id="paint5_linear_39_2331" x1="42.4566" y1="48.5047" x2="-35.4057" y2="-75.0365" gradientUnits="userSpaceOnUse">
<stop stop-color="#D2F9FF"/>
<stop offset="0.4364" stop-color="#A0CAED"/>
<stop offset="0.9946" stop-color="#618DD6"/>
</linearGradient>
<linearGradient id="paint6_linear_39_2331" x1="57.956" y1="49.643" x2="-18.9061" y2="-45.3768" gradientUnits="userSpaceOnUse">
<stop stop-color="#D2F9FF"/>
<stop offset="0.9946" stop-color="#618DD6"/>
</linearGradient>
</defs>
</svg>
